. 
  
http://www.torrenting.com/        :     Greatest Movie Tracker on The Net!!!
 
http://www.Torrenting.com          :     Once & For all ;)


               www . Torrenting . Com 

(((((((((((((= Enjoy No RAR releases =))))))))))))))))))))


...................................NFO:....................................

.








































          
          
              
              
                    
                    
                    
                    

The.Apartment.1960.DVDRip.x264.AC3-SiC

Poster:
[img]https://lh5.googleusercontent.com/-RyQ3nlxSSkE/Tkg0b7zttYI/AAAAAAAAAIo/R-IWe_x7xuo/s800/poster.jpg[/img]

IMDB Link:
http://www.imdb.com/title/tt0053604/

Description:
A man tries to rise in his company by letting its executives use his apartment for trysts, but complications and a romance of his own ensue.

MediaInfo:
General
Complete name                    : The.Apartment.1960.DVDRip.x264.AC3-SiC.mkv
Format                           : Matroska
Format version                   : Version 2
File size                        : 1.11 GiB
Duration                         : 2h 5mn
Overall bit rate                 : 1 270 Kbps
Encoded date                     : UTC 2011-08-04 16:11:49
Writing application              : mkvmerge v4.9.1 ('Ich will') built on Jul 11 2011 23:53:15
Writing library                  : libebml v1.2.1 + libmatroska v1.1.1

Video
ID                               : 1
Format                           : AVC
Format/Info                      : Advanced Video Codec
Format profile                   : High@L3.0
Format settings, CABAC           : Yes
Format settings, ReFrames        : 4 frames
Muxing mode                      : Header stripping
Codec ID                         : V_MPEG4/ISO/AVC
Duration                         : 2h 5mn
Bit rate                         : 796 Kbps
Width                            : 720 pixels
Height                           : 304 pixels
Display aspect ratio             : 2.35:1
Frame rate mode                  : Variable
Frame rate                       : 23.976 fps
Color space                      : YUV
Chroma subsampling               : 4:2:0
Bit depth                        : 8 bits
Scan type                        : Progressive
Bits/(Pixel*Frame)               : 0.152
Stream size                      : 713 MiB (63%)
Writing library                  : x264 core 112
Encoding settings                : cabac=1 / ref=3 / deblock=1:0:0 / analyse=0x3:0x113 / me=umh / subme=7 / psy=1 / psy_rd=1.00:0.00 / mixed_ref=1 / me_range=16 / chroma_me=1 / trellis=2 / 8x8dct=1 / cqm=0 / deadzone=21,11 / fast_pskip=1 / chroma_qp_offset=-2 / threads=9 / sliced_threads=0 / nr=0 / decimate=1 / interlaced=0 / constrained_intra=0 / bframes=3 / b_pyramid=2 / b_adapt=2 / b_bias=0 / direct=1 / weightb=1 / open_gop=0 / weightp=2 / keyint=240 / keyint_min=23 / scenecut=40 / intra_refresh=0 / rc_lookahead=50 / rc=crf / mbtree=1 / crf=18.0 / qcomp=0.60 / qpmin=3 / qpmax=51 / qpstep=4 / ip_ratio=1.40 / aq=1:1.00
Language                         : English
Color primaries                  : BT.601-6 525, BT.1358 525, BT.1700 NTSC, SMPTE 170M
Transfer characteristics         : BT.709-5, BT.1361
Matrix coefficients              : BT.601-6 525, BT.1358 525, BT.1700 NTSC, SMPTE 170M

Audio
ID                               : 2
Format                           : AC-3
Format/Info                      : Audio Coding 3
Mode extension                   : CM (complete main)
Muxing mode                      : Header stripping
Codec ID                         : A_AC3
Duration                         : 2h 5mn
Bit rate mode                    : Constant
Bit rate                         : 448 Kbps
Channel(s)                       : 6 channels
Channel positions                : Front: L C R, Side: L R, LFE
Sampling rate                    : 48.0 KHz
Bit depth                        : 16 bits
Compression mode                 : Lossy
Stream size                      : 401 MiB (35%)



Screenshots:
[img]https://lh4.googleusercontent.com/-Ev8UB-h1hPk/Tkg0bng1o3I/AAAAAAAAAIg/6KTh7jjzzuc/s800/vlcsnap-2011-08-14-16h44m58s161.png[/img]
[img]https://lh3.googleusercontent.com/-Ku4P_V5Pz48/Tkg0boscn_I/AAAAAAAAAIk/l_WCLe7D1Ug/s800/vlcsnap-2011-08-14-16h45m15s73.png[/img]
[img]https://lh5.googleusercontent.com/-qXwuNPkRHNE/Tkg0cLUA3rI/AAAAAAAAAIs/PXGQvtNk9M8/s800/vlcsnap-2011-08-14-16h45m22s142.png[/img]
[img]https://lh5.googleusercontent.com/-bO4nvxb_bnw/Tkg0cFZkA2I/AAAAAAAAAIw/67lg1tKuuf8/s800/vlcsnap-2011-08-14-16h45m49s146.png[/img]
[img]https://lh6.googleusercontent.com/-cZWXlb-rK70/Tkg0cvPLZpI/AAAAAAAAAI0/78AxF26vzVM/s800/vlcsnap-2011-08-14-16h45m56s239.png[/img]

Note: N/A

Encoder: Brian

Enjoy!

Respects to CaptainHomey, Cyanide, CM8, Rx, THC, ELEKTRI4KA, 
Killerhz, PA, YeFsTe, BoxSlots, MrRep and everyone in the struggle...